<mxfile host="app.diagrams.net" modified="2024-07-12T17:15:53.120Z" agent="Mozilla/5.0 (X11; Ubuntu; Linux x86_64; rv:123.0) Gecko/20100101 Firefox/123.0" etag="Opagxc9924-SdcaC72B_" version="24.6.4" type="device" pages="3">
  <diagram name="Use Case Diagram" id="CjqFJicE-gPA147Wh_Ni">
    <mxGraphModel dx="1210" dy="933" grid="0" gridSize="10" guides="1" tooltips="1" connect="1" arrows="1" fold="1" page="0" pageScale="1" pageWidth="827" pageHeight="1169" math="0" shadow="0">
      <root>
        <mxCell id="0" />
        <mxCell id="1" parent="0" />
        <mxCell id="gFJWycLENXENnHLIaa_V-1" value="Actor" style="shape=umlActor;verticalLabelPosition=bottom;verticalAlign=top;html=1;" vertex="1" parent="1">
          <mxGeometry x="-173" y="-58" width="30" height="60" as="geometry" />
        </mxCell>
        <mxCell id="gFJWycLENXENnHLIaa_V-2" value="Login" style="ellipse;whiteSpace=wrap;html=1;" vertex="1" parent="1">
          <mxGeometry x="-89" y="-130" width="140" height="70" as="geometry" />
        </mxCell>
        <mxCell id="gFJWycLENXENnHLIaa_V-3" value="Registration" style="ellipse;whiteSpace=wrap;html=1;" vertex="1" parent="1">
          <mxGeometry x="40" y="-209" width="140" height="70" as="geometry" />
        </mxCell>
        <mxCell id="gFJWycLENXENnHLIaa_V-4" value="Creating Profile" style="ellipse;whiteSpace=wrap;html=1;" vertex="1" parent="1">
          <mxGeometry x="198" y="-157" width="140" height="70" as="geometry" />
        </mxCell>
        <mxCell id="gFJWycLENXENnHLIaa_V-5" value="Updating Profile" style="ellipse;whiteSpace=wrap;html=1;" vertex="1" parent="1">
          <mxGeometry x="51" y="-74" width="140" height="70" as="geometry" />
        </mxCell>
        <mxCell id="gFJWycLENXENnHLIaa_V-6" value="&lt;div&gt;Creating request for support with&lt;/div&gt;&lt;div&gt;ongoing Module&lt;br&gt;&lt;/div&gt;" style="ellipse;whiteSpace=wrap;html=1;" vertex="1" parent="1">
          <mxGeometry x="137" y="2" width="140" height="70" as="geometry" />
        </mxCell>
        <mxCell id="gFJWycLENXENnHLIaa_V-7" value="&lt;div&gt;Creating Support Offer&amp;nbsp;&lt;/div&gt;&lt;div&gt;for completed Module&lt;/div&gt;" style="ellipse;whiteSpace=wrap;html=1;" vertex="1" parent="1">
          <mxGeometry x="-48" y="28" width="140" height="70" as="geometry" />
        </mxCell>
        <mxCell id="gFJWycLENXENnHLIaa_V-8" value="&lt;div&gt;Accepting/Rejecting &lt;br&gt;&lt;/div&gt;&lt;div&gt;request for Student &lt;br&gt;&lt;/div&gt;&lt;div&gt;Support&lt;br&gt;&lt;/div&gt;" style="ellipse;whiteSpace=wrap;html=1;" vertex="1" parent="1">
          <mxGeometry x="-124" y="98" width="140" height="70" as="geometry" />
        </mxCell>
        <mxCell id="gFJWycLENXENnHLIaa_V-9" value="Exclude" style="html=1;verticalAlign=bottom;endArrow=open;dashed=1;endSize=8;curved=0;rounded=0;fontSize=12;exitX=0.693;exitY=0.029;exitDx=0;exitDy=0;exitPerimeter=0;entryX=0;entryY=0.5;entryDx=0;entryDy=0;" edge="1" parent="1" source="gFJWycLENXENnHLIaa_V-2" target="gFJWycLENXENnHLIaa_V-3">
          <mxGeometry x="-0.2401" y="18" relative="1" as="geometry">
            <mxPoint x="-38.039999999999964" y="-160.99999999999997" as="sourcePoint" />
            <mxPoint x="-86" y="-135.98" as="targetPoint" />
            <mxPoint y="-1" as="offset" />
          </mxGeometry>
        </mxCell>
        <mxCell id="gFJWycLENXENnHLIaa_V-10" value="Include" style="html=1;verticalAlign=bottom;endArrow=open;dashed=1;endSize=8;curved=0;rounded=0;fontSize=12;exitX=0.371;exitY=0;exitDx=0;exitDy=0;exitPerimeter=0;" edge="1" parent="1" source="gFJWycLENXENnHLIaa_V-4">
          <mxGeometry relative="1" as="geometry">
            <mxPoint x="260" y="-171" as="sourcePoint" />
            <mxPoint x="180" y="-171" as="targetPoint" />
          </mxGeometry>
        </mxCell>
        <mxCell id="gFJWycLENXENnHLIaa_V-11" style="edgeStyle=none;curved=1;rounded=0;orthogonalLoop=1;jettySize=auto;html=1;entryX=0.5;entryY=0;entryDx=0;entryDy=0;fontSize=12;startSize=8;endSize=8;" edge="1" parent="1" source="gFJWycLENXENnHLIaa_V-4" target="gFJWycLENXENnHLIaa_V-4">
          <mxGeometry relative="1" as="geometry" />
        </mxCell>
        <mxCell id="gFJWycLENXENnHLIaa_V-12" value="" style="endArrow=none;html=1;rounded=0;fontSize=12;startSize=8;endSize=8;curved=1;" edge="1" parent="1">
          <mxGeometry width="50" height="50" relative="1" as="geometry">
            <mxPoint x="-122" y="-44" as="sourcePoint" />
            <mxPoint x="49" y="-47" as="targetPoint" />
          </mxGeometry>
        </mxCell>
        <mxCell id="gFJWycLENXENnHLIaa_V-13" value="" style="endArrow=none;html=1;rounded=0;fontSize=12;startSize=8;endSize=8;curved=1;entryX=0.007;entryY=0.357;entryDx=0;entryDy=0;entryPerimeter=0;" edge="1" parent="1" target="gFJWycLENXENnHLIaa_V-6">
          <mxGeometry width="50" height="50" relative="1" as="geometry">
            <mxPoint x="-119" y="-24" as="sourcePoint" />
            <mxPoint x="-103" y="56" as="targetPoint" />
          </mxGeometry>
        </mxCell>
        <mxCell id="gFJWycLENXENnHLIaa_V-14" value="" style="endArrow=none;html=1;rounded=0;fontSize=12;startSize=8;endSize=8;curved=1;entryX=0;entryY=0;entryDx=0;entryDy=0;" edge="1" parent="1" target="gFJWycLENXENnHLIaa_V-7">
          <mxGeometry width="50" height="50" relative="1" as="geometry">
            <mxPoint x="-124" y="-5" as="sourcePoint" />
            <mxPoint x="-79" y="51" as="targetPoint" />
          </mxGeometry>
        </mxCell>
        <mxCell id="gFJWycLENXENnHLIaa_V-15" value="" style="endArrow=none;html=1;rounded=0;fontSize=12;startSize=8;endSize=8;curved=1;entryX=0.264;entryY=0.014;entryDx=0;entryDy=0;entryPerimeter=0;" edge="1" parent="1" target="gFJWycLENXENnHLIaa_V-8">
          <mxGeometry width="50" height="50" relative="1" as="geometry">
            <mxPoint x="-133" y="7" as="sourcePoint" />
            <mxPoint x="-111" y="99" as="targetPoint" />
          </mxGeometry>
        </mxCell>
        <mxCell id="Ofw1ln8AedTax96mTe21-1" value="" style="endArrow=none;html=1;rounded=0;fontSize=12;startSize=8;endSize=8;curved=1;entryX=0.021;entryY=0.7;entryDx=0;entryDy=0;entryPerimeter=0;" edge="1" parent="1" target="gFJWycLENXENnHLIaa_V-2">
          <mxGeometry width="50" height="50" relative="1" as="geometry">
            <mxPoint x="-133" y="-58" as="sourcePoint" />
            <mxPoint x="23" y="-61" as="targetPoint" />
          </mxGeometry>
        </mxCell>
      </root>
    </mxGraphModel>
  </diagram>
  <diagram id="I73Jp5uind38bp00kY9t" name="Sequance Diagram">
    <mxGraphModel dx="1813" dy="1066" grid="0" gridSize="10" guides="1" tooltips="1" connect="1" arrows="1" fold="1" page="0" pageScale="1" pageWidth="827" pageHeight="1169" math="0" shadow="0">
      <root>
        <mxCell id="0" />
        <mxCell id="1" parent="0" />
        <mxCell id="9PLOovza1Fk_QAJViz-H-1" value="" style="shape=umlLifeline;perimeter=lifelinePerimeter;whiteSpace=wrap;html=1;container=1;dropTarget=0;collapsible=0;recursiveResize=0;outlineConnect=0;portConstraint=eastwest;newEdgeStyle={&quot;curved&quot;:0,&quot;rounded&quot;:0};participant=umlActor;size=46;" vertex="1" parent="1">
          <mxGeometry x="-636" y="-177" width="20" height="1075" as="geometry" />
        </mxCell>
        <mxCell id="IGbMSD-a_ZeKMeTDJ0XH-8" value="" style="html=1;points=[[0,0,0,0,5],[0,1,0,0,-5],[1,0,0,0,5],[1,1,0,0,-5]];perimeter=orthogonalPerimeter;outlineConnect=0;targetShapes=umlLifeline;portConstraint=eastwest;newEdgeStyle={&quot;curved&quot;:0,&quot;rounded&quot;:0};" vertex="1" parent="9PLOovza1Fk_QAJViz-H-1">
          <mxGeometry x="5" y="83" width="10" height="41" as="geometry" />
        </mxCell>
        <mxCell id="IGbMSD-a_ZeKMeTDJ0XH-17" value="" style="html=1;points=[[0,0,0,0,5],[0,1,0,0,-5],[1,0,0,0,5],[1,1,0,0,-5]];perimeter=orthogonalPerimeter;outlineConnect=0;targetShapes=umlLifeline;portConstraint=eastwest;newEdgeStyle={&quot;curved&quot;:0,&quot;rounded&quot;:0};" vertex="1" parent="9PLOovza1Fk_QAJViz-H-1">
          <mxGeometry x="5" y="266" width="10" height="29" as="geometry" />
        </mxCell>
        <mxCell id="eyzqFJRdyi3snC7WXqKg-1" value="" style="html=1;points=[[0,0,0,0,5],[0,1,0,0,-5],[1,0,0,0,5],[1,1,0,0,-5]];perimeter=orthogonalPerimeter;outlineConnect=0;targetShapes=umlLifeline;portConstraint=eastwest;newEdgeStyle={&quot;curved&quot;:0,&quot;rounded&quot;:0};" vertex="1" parent="9PLOovza1Fk_QAJViz-H-1">
          <mxGeometry x="5" y="385" width="10" height="29" as="geometry" />
        </mxCell>
        <mxCell id="DzQZMq1AKYqXvNBv0iKs-8" value="" style="html=1;points=[[0,0,0,0,5],[0,1,0,0,-5],[1,0,0,0,5],[1,1,0,0,-5]];perimeter=orthogonalPerimeter;outlineConnect=0;targetShapes=umlLifeline;portConstraint=eastwest;newEdgeStyle={&quot;curved&quot;:0,&quot;rounded&quot;:0};" vertex="1" parent="9PLOovza1Fk_QAJViz-H-1">
          <mxGeometry x="6" y="522" width="10" height="29" as="geometry" />
        </mxCell>
        <mxCell id="DzQZMq1AKYqXvNBv0iKs-23" value="" style="html=1;points=[[0,0,0,0,5],[0,1,0,0,-5],[1,0,0,0,5],[1,1,0,0,-5]];perimeter=orthogonalPerimeter;outlineConnect=0;targetShapes=umlLifeline;portConstraint=eastwest;newEdgeStyle={&quot;curved&quot;:0,&quot;rounded&quot;:0};" vertex="1" parent="9PLOovza1Fk_QAJViz-H-1">
          <mxGeometry x="5" y="743" width="10" height="29" as="geometry" />
        </mxCell>
        <mxCell id="DzQZMq1AKYqXvNBv0iKs-38" value="" style="html=1;points=[[0,0,0,0,5],[0,1,0,0,-5],[1,0,0,0,5],[1,1,0,0,-5]];perimeter=orthogonalPerimeter;outlineConnect=0;targetShapes=umlLifeline;portConstraint=eastwest;newEdgeStyle={&quot;curved&quot;:0,&quot;rounded&quot;:0};" vertex="1" parent="9PLOovza1Fk_QAJViz-H-1">
          <mxGeometry x="4" y="846" width="10" height="36" as="geometry" />
        </mxCell>
        <mxCell id="9PLOovza1Fk_QAJViz-H-2" value="" style="shape=umlLifeline;perimeter=lifelinePerimeter;whiteSpace=wrap;html=1;container=1;dropTarget=0;collapsible=0;recursiveResize=0;outlineConnect=0;portConstraint=eastwest;newEdgeStyle={&quot;curved&quot;:0,&quot;rounded&quot;:0};participant=umlBoundary;size=42;" vertex="1" parent="1">
          <mxGeometry x="-508" y="-188" width="50" height="1097" as="geometry" />
        </mxCell>
        <mxCell id="IGbMSD-a_ZeKMeTDJ0XH-11" value="" style="html=1;points=[[0,0,0,0,5],[0,1,0,0,-5],[1,0,0,0,5],[1,1,0,0,-5]];perimeter=orthogonalPerimeter;outlineConnect=0;targetShapes=umlLifeline;portConstraint=eastwest;newEdgeStyle={&quot;curved&quot;:0,&quot;rounded&quot;:0};" vertex="1" parent="9PLOovza1Fk_QAJViz-H-2">
          <mxGeometry x="20" y="110" width="10" height="29" as="geometry" />
        </mxCell>
        <mxCell id="IGbMSD-a_ZeKMeTDJ0XH-20" value="" style="html=1;points=[[0,0,0,0,5],[0,1,0,0,-5],[1,0,0,0,5],[1,1,0,0,-5]];perimeter=orthogonalPerimeter;outlineConnect=0;targetShapes=umlLifeline;portConstraint=eastwest;newEdgeStyle={&quot;curved&quot;:0,&quot;rounded&quot;:0};" vertex="1" parent="9PLOovza1Fk_QAJViz-H-2">
          <mxGeometry x="20" y="296" width="10" height="20" as="geometry" />
        </mxCell>
        <mxCell id="eyzqFJRdyi3snC7WXqKg-2" value="" style="html=1;points=[[0,0,0,0,5],[0,1,0,0,-5],[1,0,0,0,5],[1,1,0,0,-5]];perimeter=orthogonalPerimeter;outlineConnect=0;targetShapes=umlLifeline;portConstraint=eastwest;newEdgeStyle={&quot;curved&quot;:0,&quot;rounded&quot;:0};" vertex="1" parent="9PLOovza1Fk_QAJViz-H-2">
          <mxGeometry x="20" y="417" width="10" height="29" as="geometry" />
        </mxCell>
        <mxCell id="DzQZMq1AKYqXvNBv0iKs-9" value="" style="html=1;points=[[0,0,0,0,5],[0,1,0,0,-5],[1,0,0,0,5],[1,1,0,0,-5]];perimeter=orthogonalPerimeter;outlineConnect=0;targetShapes=umlLifeline;portConstraint=eastwest;newEdgeStyle={&quot;curved&quot;:0,&quot;rounded&quot;:0};" vertex="1" parent="9PLOovza1Fk_QAJViz-H-2">
          <mxGeometry x="20" y="549" width="10" height="29" as="geometry" />
        </mxCell>
        <mxCell id="DzQZMq1AKYqXvNBv0iKs-24" value="" style="html=1;points=[[0,0,0,0,5],[0,1,0,0,-5],[1,0,0,0,5],[1,1,0,0,-5]];perimeter=orthogonalPerimeter;outlineConnect=0;targetShapes=umlLifeline;portConstraint=eastwest;newEdgeStyle={&quot;curved&quot;:0,&quot;rounded&quot;:0};" vertex="1" parent="9PLOovza1Fk_QAJViz-H-2">
          <mxGeometry x="20" y="764" width="10" height="29" as="geometry" />
        </mxCell>
        <mxCell id="9PLOovza1Fk_QAJViz-H-3" value="" style="shape=umlLifeline;perimeter=lifelinePerimeter;whiteSpace=wrap;html=1;container=1;dropTarget=0;collapsible=0;recursiveResize=0;outlineConnect=0;portConstraint=eastwest;newEdgeStyle={&quot;curved&quot;:0,&quot;rounded&quot;:0};participant=umlEntity;" vertex="1" parent="1">
          <mxGeometry x="-277" y="-198" width="40" height="1114" as="geometry" />
        </mxCell>
        <mxCell id="IGbMSD-a_ZeKMeTDJ0XH-38" value="" style="html=1;points=[[0,0,0,0,5],[0,1,0,0,-5],[1,0,0,0,5],[1,1,0,0,-5]];perimeter=orthogonalPerimeter;outlineConnect=0;targetShapes=umlLifeline;portConstraint=eastwest;newEdgeStyle={&quot;curved&quot;:0,&quot;rounded&quot;:0};" vertex="1" parent="9PLOovza1Fk_QAJViz-H-3">
          <mxGeometry x="15" y="117" width="10" height="29" as="geometry" />
        </mxCell>
        <mxCell id="eyzqFJRdyi3snC7WXqKg-3" value="" style="html=1;points=[[0,0,0,0,5],[0,1,0,0,-5],[1,0,0,0,5],[1,1,0,0,-5]];perimeter=orthogonalPerimeter;outlineConnect=0;targetShapes=umlLifeline;portConstraint=eastwest;newEdgeStyle={&quot;curved&quot;:0,&quot;rounded&quot;:0};" vertex="1" parent="9PLOovza1Fk_QAJViz-H-3">
          <mxGeometry x="14" y="375" width="11" height="29" as="geometry" />
        </mxCell>
        <mxCell id="9PLOovza1Fk_QAJViz-H-4" value="" style="shape=umlLifeline;perimeter=lifelinePerimeter;whiteSpace=wrap;html=1;container=1;dropTarget=0;collapsible=0;recursiveResize=0;outlineConnect=0;portConstraint=eastwest;newEdgeStyle={&quot;curved&quot;:0,&quot;rounded&quot;:0};participant=umlEntity;" vertex="1" parent="1">
          <mxGeometry x="-190" y="-185" width="40" height="1097" as="geometry" />
        </mxCell>
        <mxCell id="DzQZMq1AKYqXvNBv0iKs-19" value="" style="html=1;points=[[0,0,0,0,5],[0,1,0,0,-5],[1,0,0,0,5],[1,1,0,0,-5]];perimeter=orthogonalPerimeter;outlineConnect=0;targetShapes=umlLifeline;portConstraint=eastwest;newEdgeStyle={&quot;curved&quot;:0,&quot;rounded&quot;:0};" vertex="1" parent="9PLOovza1Fk_QAJViz-H-4">
          <mxGeometry x="15" y="572" width="10" height="29" as="geometry" />
        </mxCell>
        <mxCell id="DzQZMq1AKYqXvNBv0iKs-66" value="" style="html=1;points=[[0,0,0,0,5],[0,1,0,0,-5],[1,0,0,0,5],[1,1,0,0,-5]];perimeter=orthogonalPerimeter;outlineConnect=0;targetShapes=umlLifeline;portConstraint=eastwest;newEdgeStyle={&quot;curved&quot;:0,&quot;rounded&quot;:0};" vertex="1" parent="9PLOovza1Fk_QAJViz-H-4">
          <mxGeometry x="15" y="1041" width="10" height="36" as="geometry" />
        </mxCell>
        <mxCell id="9PLOovza1Fk_QAJViz-H-5" value="" style="shape=umlLifeline;perimeter=lifelinePerimeter;whiteSpace=wrap;html=1;container=1;dropTarget=0;collapsible=0;recursiveResize=0;outlineConnect=0;portConstraint=eastwest;newEdgeStyle={&quot;curved&quot;:0,&quot;rounded&quot;:0};participant=umlEntity;" vertex="1" parent="1">
          <mxGeometry x="-81" y="-185" width="40" height="1097" as="geometry" />
        </mxCell>
        <mxCell id="DzQZMq1AKYqXvNBv0iKs-47" value="" style="html=1;points=[[0,0,0,0,5],[0,1,0,0,-5],[1,0,0,0,5],[1,1,0,0,-5]];perimeter=orthogonalPerimeter;outlineConnect=0;targetShapes=umlLifeline;portConstraint=eastwest;newEdgeStyle={&quot;curved&quot;:0,&quot;rounded&quot;:0};" vertex="1" parent="9PLOovza1Fk_QAJViz-H-5">
          <mxGeometry x="15" y="785" width="10" height="29" as="geometry" />
        </mxCell>
        <mxCell id="9PLOovza1Fk_QAJViz-H-6" value="" style="shape=umlLifeline;perimeter=lifelinePerimeter;whiteSpace=wrap;html=1;container=1;dropTarget=0;collapsible=0;recursiveResize=0;outlineConnect=0;portConstraint=eastwest;newEdgeStyle={&quot;curved&quot;:0,&quot;rounded&quot;:0};participant=umlEntity;" vertex="1" parent="1">
          <mxGeometry x="35" y="-185" width="40" height="1101" as="geometry" />
        </mxCell>
        <mxCell id="DzQZMq1AKYqXvNBv0iKs-35" value="" style="html=1;points=[[0,0,0,0,5],[0,1,0,0,-5],[1,0,0,0,5],[1,1,0,0,-5]];perimeter=orthogonalPerimeter;outlineConnect=0;targetShapes=umlLifeline;portConstraint=eastwest;newEdgeStyle={&quot;curved&quot;:0,&quot;rounded&quot;:0};" vertex="1" parent="9PLOovza1Fk_QAJViz-H-6">
          <mxGeometry x="15" y="654" width="10" height="29" as="geometry" />
        </mxCell>
        <mxCell id="DzQZMq1AKYqXvNBv0iKs-65" value="" style="html=1;points=[[0,0,0,0,5],[0,1,0,0,-5],[1,0,0,0,5],[1,1,0,0,-5]];perimeter=orthogonalPerimeter;outlineConnect=0;targetShapes=umlLifeline;portConstraint=eastwest;newEdgeStyle={&quot;curved&quot;:0,&quot;rounded&quot;:0};" vertex="1" parent="9PLOovza1Fk_QAJViz-H-6">
          <mxGeometry x="15" y="1063" width="10" height="24" as="geometry" />
        </mxCell>
        <mxCell id="9PLOovza1Fk_QAJViz-H-7" value="Student" style="text;html=1;align=center;verticalAlign=middle;whiteSpace=wrap;rounded=0;fontSize=16;" vertex="1" parent="1">
          <mxGeometry x="-652" y="-135" width="60" height="30" as="geometry" />
        </mxCell>
        <mxCell id="9PLOovza1Fk_QAJViz-H-8" value="Mobile Phone" style="text;html=1;align=center;verticalAlign=middle;whiteSpace=wrap;rounded=0;fontSize=16;" vertex="1" parent="1">
          <mxGeometry x="-513" y="-139" width="60" height="30" as="geometry" />
        </mxCell>
        <mxCell id="9PLOovza1Fk_QAJViz-H-9" value="&lt;div&gt;Application&lt;/div&gt;&lt;div&gt;logic&lt;br&gt;&lt;/div&gt;" style="text;html=1;align=center;verticalAlign=middle;whiteSpace=wrap;rounded=0;fontSize=16;" vertex="1" parent="1">
          <mxGeometry x="-408" y="-154" width="60" height="30" as="geometry" />
        </mxCell>
        <mxCell id="IGbMSD-a_ZeKMeTDJ0XH-1" value="&lt;div&gt;Request for&amp;nbsp;&lt;/div&gt;&lt;div&gt;Study&lt;br&gt;&lt;/div&gt;&lt;div&gt;Support&lt;/div&gt;" style="text;html=1;align=center;verticalAlign=middle;whiteSpace=wrap;rounded=0;fontSize=16;" vertex="1" parent="1">
          <mxGeometry x="-197" y="-108" width="60" height="30" as="geometry" />
        </mxCell>
        <mxCell id="IGbMSD-a_ZeKMeTDJ0XH-2" value="&lt;div&gt;Study&lt;br&gt;&lt;/div&gt;&lt;div&gt;Support Offer&lt;/div&gt;" style="text;html=1;align=center;verticalAlign=middle;whiteSpace=wrap;rounded=0;fontSize=16;" vertex="1" parent="1">
          <mxGeometry x="-91" y="-124" width="60" height="30" as="geometry" />
        </mxCell>
        <mxCell id="IGbMSD-a_ZeKMeTDJ0XH-4" value="&lt;div&gt;Notification &lt;br&gt;&lt;/div&gt;&lt;div&gt;for Support Request&lt;br&gt;&lt;/div&gt;" style="text;html=1;align=center;verticalAlign=middle;whiteSpace=wrap;rounded=0;fontSize=16;" vertex="1" parent="1">
          <mxGeometry x="-7" y="-124" width="124" height="30" as="geometry" />
        </mxCell>
        <mxCell id="IGbMSD-a_ZeKMeTDJ0XH-9" value="" style="edgeStyle=none;curved=0;rounded=0;orthogonalLoop=1;jettySize=auto;html=1;fontSize=12;startSize=8;endSize=8;" edge="1" parent="1" source="IGbMSD-a_ZeKMeTDJ0XH-8" target="9PLOovza1Fk_QAJViz-H-2">
          <mxGeometry relative="1" as="geometry" />
        </mxCell>
        <mxCell id="IGbMSD-a_ZeKMeTDJ0XH-10" value="&lt;div&gt;Login&amp;nbsp;&lt;/div&gt;&lt;div&gt;Request&lt;/div&gt;" style="edgeLabel;html=1;align=center;verticalAlign=middle;resizable=0;points=[];fontSize=12;" vertex="1" connectable="0" parent="IGbMSD-a_ZeKMeTDJ0XH-9">
          <mxGeometry x="-0.2675" y="1" relative="1" as="geometry">
            <mxPoint as="offset" />
          </mxGeometry>
        </mxCell>
        <mxCell id="IGbMSD-a_ZeKMeTDJ0XH-12" style="edgeStyle=none;curved=0;rounded=0;orthogonalLoop=1;jettySize=auto;html=1;exitX=1;exitY=0;exitDx=0;exitDy=5;exitPerimeter=0;fontSize=12;startSize=8;endSize=8;" edge="1" parent="1" source="IGbMSD-a_ZeKMeTDJ0XH-11" target="IGbMSD-a_ZeKMeTDJ0XH-26">
          <mxGeometry relative="1" as="geometry">
            <mxPoint x="-410" y="-73" as="targetPoint" />
          </mxGeometry>
        </mxCell>
        <mxCell id="IGbMSD-a_ZeKMeTDJ0XH-26" value="" style="shape=umlLifeline;perimeter=lifelinePerimeter;whiteSpace=wrap;html=1;container=1;dropTarget=0;collapsible=0;recursiveResize=0;outlineConnect=0;portConstraint=eastwest;newEdgeStyle={&quot;curved&quot;:0,&quot;rounded&quot;:0};participant=umlControl;" vertex="1" parent="1">
          <mxGeometry x="-394" y="-205" width="40" height="1115" as="geometry" />
        </mxCell>
        <mxCell id="IGbMSD-a_ZeKMeTDJ0XH-16" value="" style="html=1;points=[[0,0,0,0,5],[0,1,0,0,-5],[1,0,0,0,5],[1,1,0,0,-5]];perimeter=orthogonalPerimeter;outlineConnect=0;targetShapes=umlLifeline;portConstraint=eastwest;newEdgeStyle={&quot;curved&quot;:0,&quot;rounded&quot;:0};" vertex="1" parent="IGbMSD-a_ZeKMeTDJ0XH-26">
          <mxGeometry x="15" y="124" width="10" height="46" as="geometry" />
        </mxCell>
        <mxCell id="IGbMSD-a_ZeKMeTDJ0XH-32" value="" style="html=1;points=[[0,0,0,0,5],[0,1,0,0,-5],[1,0,0,0,5],[1,1,0,0,-5]];perimeter=orthogonalPerimeter;outlineConnect=0;targetShapes=umlLifeline;portConstraint=eastwest;newEdgeStyle={&quot;curved&quot;:0,&quot;rounded&quot;:0};" vertex="1" parent="IGbMSD-a_ZeKMeTDJ0XH-26">
          <mxGeometry x="15" y="190" width="10" height="40" as="geometry" />
        </mxCell>
        <mxCell id="IGbMSD-a_ZeKMeTDJ0XH-33" value="&lt;div&gt;Check&amp;nbsp;&lt;/div&gt;&lt;div&gt;Credentials&lt;/div&gt;&lt;div&gt;and user &lt;br&gt;&lt;/div&gt;&lt;div&gt;in the system&lt;br&gt;&lt;/div&gt;" style="html=1;align=left;spacingLeft=2;endArrow=block;rounded=0;edgeStyle=orthogonalEdgeStyle;curved=0;rounded=0;fontSize=12;startSize=8;endSize=8;" edge="1" parent="IGbMSD-a_ZeKMeTDJ0XH-26">
          <mxGeometry x="-0.6235" y="6" relative="1" as="geometry">
            <mxPoint x="19" y="170" as="sourcePoint" />
            <Array as="points">
              <mxPoint x="49" y="200" />
            </Array>
            <mxPoint x="24" y="200" as="targetPoint" />
            <mxPoint as="offset" />
          </mxGeometry>
        </mxCell>
        <mxCell id="IGbMSD-a_ZeKMeTDJ0XH-34" value="" style="html=1;points=[[0,0,0,0,5],[0,1,0,0,-5],[1,0,0,0,5],[1,1,0,0,-5]];perimeter=orthogonalPerimeter;outlineConnect=0;targetShapes=umlLifeline;portConstraint=eastwest;newEdgeStyle={&quot;curved&quot;:0,&quot;rounded&quot;:0};" vertex="1" parent="IGbMSD-a_ZeKMeTDJ0XH-26">
          <mxGeometry x="16" y="250" width="10" height="40" as="geometry" />
        </mxCell>
        <mxCell id="IGbMSD-a_ZeKMeTDJ0XH-35" value="&lt;div&gt;if credentials &lt;br&gt;&lt;/div&gt;&lt;div&gt;not match &lt;br&gt;&lt;/div&gt;&lt;div&gt;or user not &lt;br&gt;&lt;/div&gt;&lt;div&gt;found asks &lt;br&gt;&lt;/div&gt;&lt;div&gt;to sign up&lt;br&gt;&lt;/div&gt;" style="html=1;align=left;spacingLeft=2;endArrow=block;rounded=0;edgeStyle=orthogonalEdgeStyle;curved=0;rounded=0;fontSize=12;startSize=8;endSize=8;" edge="1" target="IGbMSD-a_ZeKMeTDJ0XH-34" parent="IGbMSD-a_ZeKMeTDJ0XH-26">
          <mxGeometry relative="1" as="geometry">
            <mxPoint x="21" y="230" as="sourcePoint" />
            <Array as="points">
              <mxPoint x="51" y="260" />
            </Array>
          </mxGeometry>
        </mxCell>
        <mxCell id="IGbMSD-a_ZeKMeTDJ0XH-41" value="" style="html=1;points=[[0,0,0,0,5],[0,1,0,0,-5],[1,0,0,0,5],[1,1,0,0,-5]];perimeter=orthogonalPerimeter;outlineConnect=0;targetShapes=umlLifeline;portConstraint=eastwest;newEdgeStyle={&quot;curved&quot;:0,&quot;rounded&quot;:0};" vertex="1" parent="IGbMSD-a_ZeKMeTDJ0XH-26">
          <mxGeometry x="16" y="313" width="10" height="21" as="geometry" />
        </mxCell>
        <mxCell id="IGbMSD-a_ZeKMeTDJ0XH-44" value="" style="html=1;points=[[0,0,0,0,5],[0,1,0,0,-5],[1,0,0,0,5],[1,1,0,0,-5]];perimeter=orthogonalPerimeter;outlineConnect=0;targetShapes=umlLifeline;portConstraint=eastwest;newEdgeStyle={&quot;curved&quot;:0,&quot;rounded&quot;:0};" vertex="1" parent="IGbMSD-a_ZeKMeTDJ0XH-26">
          <mxGeometry x="16" y="356" width="10" height="40" as="geometry" />
        </mxCell>
        <mxCell id="IGbMSD-a_ZeKMeTDJ0XH-45" value="&lt;div&gt;If all check&amp;nbsp;&lt;/div&gt;&lt;div&gt;passes &lt;br&gt;Asking to &lt;br&gt;&lt;/div&gt;&lt;div&gt;Create profile&lt;br&gt;&lt;/div&gt;" style="html=1;align=left;spacingLeft=2;endArrow=block;rounded=0;edgeStyle=orthogonalEdgeStyle;curved=0;rounded=0;fontSize=12;startSize=8;endSize=8;" edge="1" target="IGbMSD-a_ZeKMeTDJ0XH-44" parent="IGbMSD-a_ZeKMeTDJ0XH-26">
          <mxGeometry relative="1" as="geometry">
            <mxPoint x="21" y="336" as="sourcePoint" />
            <Array as="points">
              <mxPoint x="51" y="366" />
            </Array>
          </mxGeometry>
        </mxCell>
        <mxCell id="DzQZMq1AKYqXvNBv0iKs-1" value="" style="html=1;points=[[0,0,0,0,5],[0,1,0,0,-5],[1,0,0,0,5],[1,1,0,0,-5]];perimeter=orthogonalPerimeter;outlineConnect=0;targetShapes=umlLifeline;portConstraint=eastwest;newEdgeStyle={&quot;curved&quot;:0,&quot;rounded&quot;:0};" vertex="1" parent="IGbMSD-a_ZeKMeTDJ0XH-26">
          <mxGeometry x="16" y="445" width="10" height="29" as="geometry" />
        </mxCell>
        <mxCell id="DzQZMq1AKYqXvNBv0iKs-12" value="" style="html=1;points=[[0,0,0,0,5],[0,1,0,0,-5],[1,0,0,0,5],[1,1,0,0,-5]];perimeter=orthogonalPerimeter;outlineConnect=0;targetShapes=umlLifeline;portConstraint=eastwest;newEdgeStyle={&quot;curved&quot;:0,&quot;rounded&quot;:0};" vertex="1" parent="IGbMSD-a_ZeKMeTDJ0XH-26">
          <mxGeometry x="15" y="574" width="10" height="52" as="geometry" />
        </mxCell>
        <mxCell id="DzQZMq1AKYqXvNBv0iKs-32" value="" style="html=1;points=[[0,0,0,0,5],[0,1,0,0,-5],[1,0,0,0,5],[1,1,0,0,-5]];perimeter=orthogonalPerimeter;outlineConnect=0;targetShapes=umlLifeline;portConstraint=eastwest;newEdgeStyle={&quot;curved&quot;:0,&quot;rounded&quot;:0};" vertex="1" parent="IGbMSD-a_ZeKMeTDJ0XH-26">
          <mxGeometry x="17" y="644" width="10" height="40" as="geometry" />
        </mxCell>
        <mxCell id="DzQZMq1AKYqXvNBv0iKs-33" value="&lt;div&gt;Creating Notification&lt;/div&gt;&lt;div&gt;of Requested Study Help&lt;br&gt;&lt;/div&gt;" style="html=1;align=left;spacingLeft=2;endArrow=block;rounded=0;edgeStyle=orthogonalEdgeStyle;curved=0;rounded=0;fontSize=12;startSize=8;endSize=8;" edge="1" target="DzQZMq1AKYqXvNBv0iKs-32" parent="IGbMSD-a_ZeKMeTDJ0XH-26">
          <mxGeometry relative="1" as="geometry">
            <mxPoint x="22" y="624" as="sourcePoint" />
            <Array as="points">
              <mxPoint x="52" y="654" />
            </Array>
          </mxGeometry>
        </mxCell>
        <mxCell id="DzQZMq1AKYqXvNBv0iKs-25" value="" style="html=1;points=[[0,0,0,0,5],[0,1,0,0,-5],[1,0,0,0,5],[1,1,0,0,-5]];perimeter=orthogonalPerimeter;outlineConnect=0;targetShapes=umlLifeline;portConstraint=eastwest;newEdgeStyle={&quot;curved&quot;:0,&quot;rounded&quot;:0};" vertex="1" parent="IGbMSD-a_ZeKMeTDJ0XH-26">
          <mxGeometry x="15" y="788" width="10" height="29" as="geometry" />
        </mxCell>
        <mxCell id="DzQZMq1AKYqXvNBv0iKs-53" value="" style="html=1;points=[[0,0,0,0,5],[0,1,0,0,-5],[1,0,0,0,5],[1,1,0,0,-5]];perimeter=orthogonalPerimeter;outlineConnect=0;targetShapes=umlLifeline;portConstraint=eastwest;newEdgeStyle={&quot;curved&quot;:0,&quot;rounded&quot;:0};" vertex="1" parent="IGbMSD-a_ZeKMeTDJ0XH-26">
          <mxGeometry x="17" y="951" width="10" height="40" as="geometry" />
        </mxCell>
        <mxCell id="DzQZMq1AKYqXvNBv0iKs-54" value="&lt;div&gt;Listing&lt;/div&gt;&lt;div&gt;Notifications&lt;/div&gt;&lt;div&gt;related to&lt;/div&gt;&lt;div&gt;the logged&lt;/div&gt;&lt;div&gt;User&lt;br&gt;&lt;/div&gt;" style="html=1;align=left;spacingLeft=2;endArrow=block;rounded=0;edgeStyle=orthogonalEdgeStyle;curved=0;rounded=0;fontSize=12;startSize=8;endSize=8;" edge="1" target="DzQZMq1AKYqXvNBv0iKs-53" parent="IGbMSD-a_ZeKMeTDJ0XH-26">
          <mxGeometry relative="1" as="geometry">
            <mxPoint x="22" y="931" as="sourcePoint" />
            <Array as="points">
              <mxPoint x="52" y="961" />
            </Array>
          </mxGeometry>
        </mxCell>
        <mxCell id="IGbMSD-a_ZeKMeTDJ0XH-27" value="Student" style="text;html=1;align=center;verticalAlign=middle;whiteSpace=wrap;rounded=0;fontSize=16;" vertex="1" parent="1">
          <mxGeometry x="-283" y="-132" width="60" height="30" as="geometry" />
        </mxCell>
        <mxCell id="IGbMSD-a_ZeKMeTDJ0XH-29" value="login Request" style="edgeLabel;html=1;align=center;verticalAlign=middle;resizable=0;points=[];fontSize=12;" vertex="1" connectable="0" parent="1">
          <mxGeometry x="-418" y="-76.00000000000023" as="geometry">
            <mxPoint x="-10" y="4" as="offset" />
          </mxGeometry>
        </mxCell>
        <mxCell id="IGbMSD-a_ZeKMeTDJ0XH-36" style="edgeStyle=none;curved=0;rounded=0;orthogonalLoop=1;jettySize=auto;html=1;exitX=1;exitY=0;exitDx=0;exitDy=5;exitPerimeter=0;fontSize=12;startSize=8;endSize=8;" edge="1" parent="1" source="IGbMSD-a_ZeKMeTDJ0XH-16" target="9PLOovza1Fk_QAJViz-H-3">
          <mxGeometry relative="1" as="geometry" />
        </mxCell>
        <mxCell id="IGbMSD-a_ZeKMeTDJ0XH-37" value="&lt;div&gt;Credentials passed&lt;/div&gt;&lt;div&gt;user signed up&lt;br&gt;&lt;/div&gt;" style="edgeLabel;html=1;align=center;verticalAlign=middle;resizable=0;points=[];fontSize=12;" vertex="1" connectable="0" parent="IGbMSD-a_ZeKMeTDJ0XH-36">
          <mxGeometry x="-0.2108" y="2" relative="1" as="geometry">
            <mxPoint x="7" y="-18" as="offset" />
          </mxGeometry>
        </mxCell>
        <mxCell id="IGbMSD-a_ZeKMeTDJ0XH-18" style="edgeStyle=none;curved=0;rounded=0;orthogonalLoop=1;jettySize=auto;html=1;exitX=1;exitY=1;exitDx=0;exitDy=-5;exitPerimeter=0;fontSize=12;startSize=8;endSize=8;entryX=0;entryY=0;entryDx=0;entryDy=5;entryPerimeter=0;" edge="1" parent="1" source="IGbMSD-a_ZeKMeTDJ0XH-17" target="IGbMSD-a_ZeKMeTDJ0XH-20">
          <mxGeometry relative="1" as="geometry">
            <mxPoint x="-483.5000000000002" y="99" as="targetPoint" />
          </mxGeometry>
        </mxCell>
        <mxCell id="IGbMSD-a_ZeKMeTDJ0XH-19" value="&lt;div&gt;Sign Up&lt;/div&gt;&lt;div&gt;Request&lt;br&gt;&lt;/div&gt;" style="edgeLabel;html=1;align=center;verticalAlign=middle;resizable=0;points=[];fontSize=12;" vertex="1" connectable="0" parent="IGbMSD-a_ZeKMeTDJ0XH-18">
          <mxGeometry x="-0.0221" relative="1" as="geometry">
            <mxPoint as="offset" />
          </mxGeometry>
        </mxCell>
        <mxCell id="IGbMSD-a_ZeKMeTDJ0XH-42" style="edgeStyle=none;curved=0;rounded=0;orthogonalLoop=1;jettySize=auto;html=1;exitX=1;exitY=0;exitDx=0;exitDy=5;exitPerimeter=0;fontSize=12;startSize=8;endSize=8;" edge="1" parent="1" source="IGbMSD-a_ZeKMeTDJ0XH-20" target="IGbMSD-a_ZeKMeTDJ0XH-26">
          <mxGeometry relative="1" as="geometry" />
        </mxCell>
        <mxCell id="IGbMSD-a_ZeKMeTDJ0XH-43" value="&lt;div&gt;Sign up&lt;/div&gt;&lt;div&gt;Form fulfilled&lt;/div&gt;&lt;div&gt;with all&lt;/div&gt;&lt;div&gt;&amp;nbsp;regulations&lt;br&gt;&lt;/div&gt;" style="edgeLabel;html=1;align=center;verticalAlign=middle;resizable=0;points=[];fontSize=12;" vertex="1" connectable="0" parent="IGbMSD-a_ZeKMeTDJ0XH-42">
          <mxGeometry x="-0.1691" relative="1" as="geometry">
            <mxPoint as="offset" />
          </mxGeometry>
        </mxCell>
        <mxCell id="eyzqFJRdyi3snC7WXqKg-4" style="edgeStyle=none;curved=0;rounded=0;orthogonalLoop=1;jettySize=auto;html=1;exitX=1;exitY=1;exitDx=0;exitDy=-5;exitPerimeter=0;fontSize=12;startSize=8;endSize=8;" edge="1" parent="1" source="eyzqFJRdyi3snC7WXqKg-1">
          <mxGeometry relative="1" as="geometry">
            <mxPoint x="-483.5000000000002" y="232" as="targetPoint" />
          </mxGeometry>
        </mxCell>
        <mxCell id="eyzqFJRdyi3snC7WXqKg-5" value="&lt;div&gt;Updating &lt;br&gt;&lt;/div&gt;&lt;div&gt;Profile&lt;br&gt;&lt;/div&gt;" style="edgeLabel;html=1;align=center;verticalAlign=middle;resizable=0;points=[];fontSize=12;" vertex="1" connectable="0" parent="eyzqFJRdyi3snC7WXqKg-4">
          <mxGeometry x="-0.047" relative="1" as="geometry">
            <mxPoint as="offset" />
          </mxGeometry>
        </mxCell>
        <mxCell id="f_RlVpyaIyuvoHwaJbJu-1" style="edgeStyle=none;curved=0;rounded=0;orthogonalLoop=1;jettySize=auto;html=1;exitX=1;exitY=1;exitDx=0;exitDy=-5;exitPerimeter=0;fontSize=12;startSize=8;endSize=8;" edge="1" parent="1" source="IGbMSD-a_ZeKMeTDJ0XH-44" target="9PLOovza1Fk_QAJViz-H-3">
          <mxGeometry relative="1" as="geometry" />
        </mxCell>
        <mxCell id="f_RlVpyaIyuvoHwaJbJu-2" value="Creating &lt;br&gt;&lt;div&gt;Profile in&lt;/div&gt;&lt;div&gt;System&lt;br&gt;&lt;/div&gt;" style="edgeLabel;html=1;align=center;verticalAlign=middle;resizable=0;points=[];fontSize=12;" vertex="1" connectable="0" parent="f_RlVpyaIyuvoHwaJbJu-1">
          <mxGeometry x="-0.0256" y="3" relative="1" as="geometry">
            <mxPoint y="19" as="offset" />
          </mxGeometry>
        </mxCell>
        <mxCell id="DzQZMq1AKYqXvNBv0iKs-3" style="edgeStyle=none;curved=0;rounded=0;orthogonalLoop=1;jettySize=auto;html=1;exitX=1;exitY=1;exitDx=0;exitDy=-5;exitPerimeter=0;fontSize=12;startSize=8;endSize=8;" edge="1" parent="1" source="eyzqFJRdyi3snC7WXqKg-2" target="IGbMSD-a_ZeKMeTDJ0XH-26">
          <mxGeometry relative="1" as="geometry" />
        </mxCell>
        <mxCell id="DzQZMq1AKYqXvNBv0iKs-4" value="&lt;div&gt;Updating&amp;nbsp;&lt;/div&gt;&lt;div&gt;with&lt;/div&gt;&lt;div&gt;passed&amp;nbsp;&lt;/div&gt;&lt;div&gt;requirements&lt;br&gt;&lt;/div&gt;" style="edgeLabel;html=1;align=center;verticalAlign=middle;resizable=0;points=[];fontSize=12;" vertex="1" connectable="0" parent="DzQZMq1AKYqXvNBv0iKs-3">
          <mxGeometry x="-0.2818" y="2" relative="1" as="geometry">
            <mxPoint x="7" y="14" as="offset" />
          </mxGeometry>
        </mxCell>
        <mxCell id="DzQZMq1AKYqXvNBv0iKs-5" value="" style="html=1;points=[[0,0,0,0,5],[0,1,0,0,-5],[1,0,0,0,5],[1,1,0,0,-5]];perimeter=orthogonalPerimeter;outlineConnect=0;targetShapes=umlLifeline;portConstraint=eastwest;newEdgeStyle={&quot;curved&quot;:0,&quot;rounded&quot;:0};" vertex="1" parent="1">
          <mxGeometry x="-262" y="252" width="10" height="29" as="geometry" />
        </mxCell>
        <mxCell id="DzQZMq1AKYqXvNBv0iKs-6" style="edgeStyle=none;curved=0;rounded=0;orthogonalLoop=1;jettySize=auto;html=1;exitX=1;exitY=1;exitDx=0;exitDy=-5;exitPerimeter=0;fontSize=12;startSize=8;endSize=8;" edge="1" parent="1" source="DzQZMq1AKYqXvNBv0iKs-1" target="9PLOovza1Fk_QAJViz-H-3">
          <mxGeometry relative="1" as="geometry" />
        </mxCell>
        <mxCell id="DzQZMq1AKYqXvNBv0iKs-7" value="&lt;div&gt;Updating&lt;/div&gt;&lt;div&gt;profile&lt;/div&gt;&lt;div&gt;in Firebase&lt;br&gt;&lt;/div&gt;" style="edgeLabel;html=1;align=center;verticalAlign=middle;resizable=0;points=[];fontSize=12;" vertex="1" connectable="0" parent="DzQZMq1AKYqXvNBv0iKs-6">
          <mxGeometry x="-0.2217" y="-1" relative="1" as="geometry">
            <mxPoint x="2" y="4" as="offset" />
          </mxGeometry>
        </mxCell>
        <mxCell id="DzQZMq1AKYqXvNBv0iKs-10" style="edgeStyle=none;curved=0;rounded=0;orthogonalLoop=1;jettySize=auto;html=1;exitX=1;exitY=1;exitDx=0;exitDy=-5;exitPerimeter=0;fontSize=12;startSize=8;endSize=8;" edge="1" parent="1" source="DzQZMq1AKYqXvNBv0iKs-8" target="9PLOovza1Fk_QAJViz-H-2">
          <mxGeometry relative="1" as="geometry" />
        </mxCell>
        <mxCell id="DzQZMq1AKYqXvNBv0iKs-11" value="&lt;div&gt;Creating &lt;br&gt;&lt;/div&gt;&lt;div&gt;requests&lt;/div&gt;&lt;div&gt;for Help&lt;br&gt;&lt;/div&gt;&lt;div&gt;&lt;br&gt;&lt;/div&gt;" style="edgeLabel;html=1;align=center;verticalAlign=middle;resizable=0;points=[];fontSize=12;" vertex="1" connectable="0" parent="DzQZMq1AKYqXvNBv0iKs-10">
          <mxGeometry x="-0.226" relative="1" as="geometry">
            <mxPoint as="offset" />
          </mxGeometry>
        </mxCell>
        <mxCell id="DzQZMq1AKYqXvNBv0iKs-13" style="edgeStyle=none;curved=0;rounded=0;orthogonalLoop=1;jettySize=auto;html=1;exitX=1;exitY=1;exitDx=0;exitDy=-5;exitPerimeter=0;fontSize=12;startSize=8;endSize=8;" edge="1" parent="1" source="DzQZMq1AKYqXvNBv0iKs-9" target="IGbMSD-a_ZeKMeTDJ0XH-26">
          <mxGeometry relative="1" as="geometry" />
        </mxCell>
        <mxCell id="DzQZMq1AKYqXvNBv0iKs-16" value="Filling&amp;nbsp; &lt;br&gt;Offer &lt;div&gt;application&lt;br&gt;&lt;/div&gt;" style="edgeLabel;html=1;align=center;verticalAlign=middle;resizable=0;points=[];fontSize=12;" vertex="1" connectable="0" parent="DzQZMq1AKYqXvNBv0iKs-13">
          <mxGeometry x="-0.0886" relative="1" as="geometry">
            <mxPoint as="offset" />
          </mxGeometry>
        </mxCell>
        <mxCell id="DzQZMq1AKYqXvNBv0iKs-20" style="edgeStyle=none;curved=0;rounded=0;orthogonalLoop=1;jettySize=auto;html=1;fontSize=12;startSize=8;endSize=8;" edge="1" parent="1" source="DzQZMq1AKYqXvNBv0iKs-12" target="DzQZMq1AKYqXvNBv0iKs-19">
          <mxGeometry relative="1" as="geometry" />
        </mxCell>
        <mxCell id="DzQZMq1AKYqXvNBv0iKs-36" value="Creating Request for " style="edgeLabel;html=1;align=center;verticalAlign=middle;resizable=0;points=[];fontSize=12;" vertex="1" connectable="0" parent="DzQZMq1AKYqXvNBv0iKs-20">
          <mxGeometry x="0.0615" y="1" relative="1" as="geometry">
            <mxPoint as="offset" />
          </mxGeometry>
        </mxCell>
        <mxCell id="DzQZMq1AKYqXvNBv0iKs-28" style="edgeStyle=none;curved=0;rounded=0;orthogonalLoop=1;jettySize=auto;html=1;exitX=1;exitY=1;exitDx=0;exitDy=-5;exitPerimeter=0;fontSize=12;startSize=8;endSize=8;" edge="1" parent="1" source="DzQZMq1AKYqXvNBv0iKs-23">
          <mxGeometry relative="1" as="geometry">
            <mxPoint x="-483.5" y="590" as="targetPoint" />
          </mxGeometry>
        </mxCell>
        <mxCell id="DzQZMq1AKYqXvNBv0iKs-30" value="&lt;div&gt;Placing &lt;br&gt;&lt;/div&gt;&lt;div&gt;Help &lt;br&gt;&lt;/div&gt;&lt;div&gt;Offer&lt;br&gt;&lt;/div&gt;" style="edgeLabel;html=1;align=center;verticalAlign=middle;resizable=0;points=[];fontSize=12;" vertex="1" connectable="0" parent="DzQZMq1AKYqXvNBv0iKs-28">
          <mxGeometry x="-0.1831" y="-2" relative="1" as="geometry">
            <mxPoint as="offset" />
          </mxGeometry>
        </mxCell>
        <mxCell id="DzQZMq1AKYqXvNBv0iKs-29" style="edgeStyle=none;curved=0;rounded=0;orthogonalLoop=1;jettySize=auto;html=1;exitX=1;exitY=1;exitDx=0;exitDy=-5;exitPerimeter=0;fontSize=12;startSize=8;endSize=8;" edge="1" parent="1" source="DzQZMq1AKYqXvNBv0iKs-24">
          <mxGeometry relative="1" as="geometry">
            <mxPoint x="-380" y="597" as="targetPoint" />
          </mxGeometry>
        </mxCell>
        <mxCell id="DzQZMq1AKYqXvNBv0iKs-31" value="&lt;div&gt;Processing &lt;br&gt;&lt;/div&gt;&lt;div&gt;the Help&amp;nbsp;&lt;/div&gt;&lt;div&gt;Offer&lt;/div&gt;&lt;div&gt;&amp;nbsp;Application&lt;/div&gt;&lt;div&gt;with&amp;nbsp;&lt;/div&gt;&lt;div&gt;requirements&lt;br&gt;&lt;/div&gt;" style="edgeLabel;html=1;align=center;verticalAlign=middle;resizable=0;points=[];fontSize=12;" vertex="1" connectable="0" parent="DzQZMq1AKYqXvNBv0iKs-29">
          <mxGeometry x="-0.003" relative="1" as="geometry">
            <mxPoint x="-3" as="offset" />
          </mxGeometry>
        </mxCell>
        <mxCell id="DzQZMq1AKYqXvNBv0iKs-34" style="edgeStyle=none;curved=0;rounded=0;orthogonalLoop=1;jettySize=auto;html=1;exitX=1;exitY=1;exitDx=0;exitDy=-5;exitPerimeter=0;fontSize=12;startSize=8;endSize=8;" edge="1" parent="1" source="DzQZMq1AKYqXvNBv0iKs-32" target="9PLOovza1Fk_QAJViz-H-6">
          <mxGeometry relative="1" as="geometry" />
        </mxCell>
        <mxCell id="DzQZMq1AKYqXvNBv0iKs-37" value="Storing Created Notification as Status &quot;Created&quot;" style="edgeLabel;html=1;align=center;verticalAlign=middle;resizable=0;points=[];fontSize=12;" vertex="1" connectable="0" parent="DzQZMq1AKYqXvNBv0iKs-34">
          <mxGeometry x="0.0273" y="1" relative="1" as="geometry">
            <mxPoint as="offset" />
          </mxGeometry>
        </mxCell>
        <mxCell id="DzQZMq1AKYqXvNBv0iKs-44" style="edgeStyle=none;curved=0;rounded=0;orthogonalLoop=1;jettySize=auto;html=1;exitX=1;exitY=1;exitDx=0;exitDy=-5;exitPerimeter=0;fontSize=12;startSize=8;endSize=8;" edge="1" parent="1" source="DzQZMq1AKYqXvNBv0iKs-39" target="IGbMSD-a_ZeKMeTDJ0XH-26">
          <mxGeometry relative="1" as="geometry" />
        </mxCell>
        <mxCell id="DzQZMq1AKYqXvNBv0iKs-52" value="&lt;div&gt;Checking &lt;br&gt;&lt;/div&gt;&lt;div&gt;Notification&lt;/div&gt;&lt;div&gt;related to &lt;br&gt;Logged User&lt;/div&gt;" style="edgeLabel;html=1;align=center;verticalAlign=middle;resizable=0;points=[];fontSize=12;" vertex="1" connectable="0" parent="DzQZMq1AKYqXvNBv0iKs-44">
          <mxGeometry x="-0.1077" y="1" relative="1" as="geometry">
            <mxPoint as="offset" />
          </mxGeometry>
        </mxCell>
        <mxCell id="DzQZMq1AKYqXvNBv0iKs-39" value="" style="html=1;points=[[0,0,0,0,5],[0,1,0,0,-5],[1,0,0,0,5],[1,1,0,0,-5]];perimeter=orthogonalPerimeter;outlineConnect=0;targetShapes=umlLifeline;portConstraint=eastwest;newEdgeStyle={&quot;curved&quot;:0,&quot;rounded&quot;:0};" vertex="1" parent="1">
          <mxGeometry x="-488" y="668" width="10" height="36" as="geometry" />
        </mxCell>
        <mxCell id="DzQZMq1AKYqXvNBv0iKs-40" style="edgeStyle=none;curved=0;rounded=0;orthogonalLoop=1;jettySize=auto;html=1;exitX=1;exitY=0;exitDx=0;exitDy=5;exitPerimeter=0;fontSize=12;startSize=8;endSize=8;" edge="1" parent="1" source="DzQZMq1AKYqXvNBv0iKs-38" target="9PLOovza1Fk_QAJViz-H-2">
          <mxGeometry relative="1" as="geometry" />
        </mxCell>
        <mxCell id="DzQZMq1AKYqXvNBv0iKs-41" value="&lt;div&gt;Listing&lt;/div&gt;&lt;div&gt;Notifications&lt;/div&gt;" style="edgeLabel;html=1;align=center;verticalAlign=middle;resizable=0;points=[];fontSize=12;" vertex="1" connectable="0" parent="DzQZMq1AKYqXvNBv0iKs-40">
          <mxGeometry x="-0.094" y="3" relative="1" as="geometry">
            <mxPoint as="offset" />
          </mxGeometry>
        </mxCell>
        <mxCell id="DzQZMq1AKYqXvNBv0iKs-42" value="" style="html=1;points=[[0,0,0,0,5],[0,1,0,0,-5],[1,0,0,0,5],[1,1,0,0,-5]];perimeter=orthogonalPerimeter;outlineConnect=0;targetShapes=umlLifeline;portConstraint=eastwest;newEdgeStyle={&quot;curved&quot;:0,&quot;rounded&quot;:0};" vertex="1" parent="1">
          <mxGeometry x="-378" y="691" width="10" height="36" as="geometry" />
        </mxCell>
        <mxCell id="DzQZMq1AKYqXvNBv0iKs-48" style="edgeStyle=none;curved=0;rounded=0;orthogonalLoop=1;jettySize=auto;html=1;exitX=1;exitY=1;exitDx=0;exitDy=-5;exitPerimeter=0;entryX=0;entryY=0;entryDx=0;entryDy=5;entryPerimeter=0;fontSize=12;startSize=8;endSize=8;" edge="1" parent="1" source="DzQZMq1AKYqXvNBv0iKs-25" target="DzQZMq1AKYqXvNBv0iKs-47">
          <mxGeometry relative="1" as="geometry" />
        </mxCell>
        <mxCell id="DzQZMq1AKYqXvNBv0iKs-49" value="&lt;div&gt;Placing the Offer in database&lt;/div&gt;&lt;div&gt;and make it available for Listing&lt;br&gt;&lt;/div&gt;" style="edgeLabel;html=1;align=center;verticalAlign=middle;resizable=0;points=[];fontSize=12;" vertex="1" connectable="0" parent="DzQZMq1AKYqXvNBv0iKs-48">
          <mxGeometry x="-0.0402" y="-1" relative="1" as="geometry">
            <mxPoint as="offset" />
          </mxGeometry>
        </mxCell>
        <mxCell id="DzQZMq1AKYqXvNBv0iKs-57" value="" style="html=1;points=[[0,0,0,0,5],[0,1,0,0,-5],[1,0,0,0,5],[1,1,0,0,-5]];perimeter=orthogonalPerimeter;outlineConnect=0;targetShapes=umlLifeline;portConstraint=eastwest;newEdgeStyle={&quot;curved&quot;:0,&quot;rounded&quot;:0};" vertex="1" parent="1">
          <mxGeometry x="-631" y="816" width="10" height="36" as="geometry" />
        </mxCell>
        <mxCell id="DzQZMq1AKYqXvNBv0iKs-60" value="" style="edgeStyle=none;curved=0;rounded=0;orthogonalLoop=1;jettySize=auto;html=1;exitX=1;exitY=0;exitDx=0;exitDy=5;exitPerimeter=0;fontSize=12;startSize=8;endSize=8;" edge="1" parent="1">
          <mxGeometry relative="1" as="geometry">
            <mxPoint x="-621" y="822" as="sourcePoint" />
            <mxPoint x="-488" y="822" as="targetPoint" />
          </mxGeometry>
        </mxCell>
        <mxCell id="DzQZMq1AKYqXvNBv0iKs-61" value="&lt;div&gt;Accepting / Rejecting&lt;br&gt;&lt;/div&gt;&lt;div&gt;Requested&amp;nbsp;&lt;/div&gt;&lt;div&gt;help&lt;br&gt;&lt;/div&gt;" style="edgeLabel;html=1;align=center;verticalAlign=middle;resizable=0;points=[];fontSize=12;" vertex="1" connectable="0" parent="DzQZMq1AKYqXvNBv0iKs-60">
          <mxGeometry x="0.2581" relative="1" as="geometry">
            <mxPoint x="-14" y="7" as="offset" />
          </mxGeometry>
        </mxCell>
        <mxCell id="DzQZMq1AKYqXvNBv0iKs-63" style="edgeStyle=none;curved=0;rounded=0;orthogonalLoop=1;jettySize=auto;html=1;exitX=1;exitY=1;exitDx=0;exitDy=-5;exitPerimeter=0;fontSize=12;startSize=8;endSize=8;" edge="1" parent="1" source="DzQZMq1AKYqXvNBv0iKs-58" target="IGbMSD-a_ZeKMeTDJ0XH-26">
          <mxGeometry relative="1" as="geometry" />
        </mxCell>
        <mxCell id="DzQZMq1AKYqXvNBv0iKs-64" value="Checking &lt;br&gt;Request &lt;br&gt;in Database" style="edgeLabel;html=1;align=center;verticalAlign=middle;resizable=0;points=[];fontSize=12;" vertex="1" connectable="0" parent="DzQZMq1AKYqXvNBv0iKs-63">
          <mxGeometry x="0.0435" y="2" relative="1" as="geometry">
            <mxPoint x="-1" as="offset" />
          </mxGeometry>
        </mxCell>
        <mxCell id="DzQZMq1AKYqXvNBv0iKs-58" value="" style="html=1;points=[[0,0,0,0,5],[0,1,0,0,-5],[1,0,0,0,5],[1,1,0,0,-5]];perimeter=orthogonalPerimeter;outlineConnect=0;targetShapes=umlLifeline;portConstraint=eastwest;newEdgeStyle={&quot;curved&quot;:0,&quot;rounded&quot;:0};" vertex="1" parent="1">
          <mxGeometry x="-488" y="815" width="10" height="36" as="geometry" />
        </mxCell>
        <mxCell id="DzQZMq1AKYqXvNBv0iKs-67" style="edgeStyle=none;curved=0;rounded=0;orthogonalLoop=1;jettySize=auto;html=1;exitX=1;exitY=1;exitDx=0;exitDy=-5;exitPerimeter=0;fontSize=12;startSize=8;endSize=8;" edge="1" parent="1" source="DzQZMq1AKYqXvNBv0iKs-62" target="9PLOovza1Fk_QAJViz-H-4">
          <mxGeometry relative="1" as="geometry" />
        </mxCell>
        <mxCell id="DzQZMq1AKYqXvNBv0iKs-68" value="&lt;div&gt;Changing the status&amp;nbsp;&lt;/div&gt;&lt;div&gt;of the Request&lt;/div&gt;&lt;div&gt;in the database&lt;br&gt; &lt;/div&gt;" style="edgeLabel;html=1;align=center;verticalAlign=middle;resizable=0;points=[];fontSize=12;" vertex="1" connectable="0" parent="DzQZMq1AKYqXvNBv0iKs-67">
          <mxGeometry x="-0.2376" y="1" relative="1" as="geometry">
            <mxPoint as="offset" />
          </mxGeometry>
        </mxCell>
        <mxCell id="DzQZMq1AKYqXvNBv0iKs-62" value="" style="html=1;points=[[0,0,0,0,5],[0,1,0,0,-5],[1,0,0,0,5],[1,1,0,0,-5]];perimeter=orthogonalPerimeter;outlineConnect=0;targetShapes=umlLifeline;portConstraint=eastwest;newEdgeStyle={&quot;curved&quot;:0,&quot;rounded&quot;:0};" vertex="1" parent="1">
          <mxGeometry x="-379" y="835" width="10" height="36" as="geometry" />
        </mxCell>
        <mxCell id="DzQZMq1AKYqXvNBv0iKs-71" style="edgeStyle=none;curved=0;rounded=0;orthogonalLoop=1;jettySize=auto;html=1;exitX=1;exitY=1;exitDx=0;exitDy=-5;exitPerimeter=0;fontSize=12;startSize=8;endSize=8;" edge="1" parent="1" source="DzQZMq1AKYqXvNBv0iKs-66" target="9PLOovza1Fk_QAJViz-H-6">
          <mxGeometry relative="1" as="geometry" />
        </mxCell>
        <mxCell id="DzQZMq1AKYqXvNBv0iKs-74" value="&lt;div&gt;Changing Notification Status &lt;br&gt;&lt;/div&gt;&lt;div&gt;to Accepted/Rejected&lt;/div&gt;&lt;div&gt;and Text&lt;br&gt;&lt;/div&gt;" style="edgeLabel;html=1;align=center;verticalAlign=middle;resizable=0;points=[];fontSize=12;" vertex="1" connectable="0" parent="DzQZMq1AKYqXvNBv0iKs-71">
          <mxGeometry x="0.0539" y="-1" relative="1" as="geometry">
            <mxPoint as="offset" />
          </mxGeometry>
        </mxCell>
      </root>
    </mxGraphModel>
  </diagram>
  <diagram id="n7Cq3LfWpedDeeWfgSNm" name="Class Diagram">
    <mxGraphModel dx="1557" dy="1561" grid="0" gridSize="10" guides="1" tooltips="1" connect="1" arrows="1" fold="1" page="0" pageScale="1" pageWidth="827" pageHeight="1169" math="0" shadow="0">
      <root>
        <mxCell id="0" />
        <mxCell id="1" parent="0" />
        <mxCell id="VchHYo2AnK-7lCxhvAY8-1" value="Student User" style="swimlane;fontStyle=1;align=center;verticalAlign=top;childLayout=stackLayout;horizontal=1;startSize=26;horizontalStack=0;resizeParent=1;resizeParentMax=0;resizeLast=0;collapsible=1;marginBottom=0;whiteSpace=wrap;html=1;labelBackgroundColor=none;fillColor=#F2CC8F;strokeColor=#E07A5F;fontColor=#393C56;" vertex="1" parent="1">
          <mxGeometry x="-210" y="-513" width="187" height="243" as="geometry" />
        </mxCell>
        <mxCell id="VchHYo2AnK-7lCxhvAY8-2" value="&lt;div&gt;:Student ID(P.K.)&lt;br&gt;&lt;/div&gt;&lt;div&gt;:Student Name&lt;br&gt;&lt;/div&gt;&lt;div&gt;:Student Second Name &lt;br&gt;&lt;/div&gt;&lt;div&gt;:Student Modules&lt;/div&gt;&lt;div&gt;:Student current location&lt;/div&gt;&lt;div&gt;:Student location to meet (Longitude and latitude)&lt;br&gt;&lt;/div&gt;" style="text;strokeColor=none;fillColor=none;align=left;verticalAlign=top;spacingLeft=4;spacingRight=4;overflow=hidden;rotatable=0;points=[[0,0.5],[1,0.5]];portConstraint=eastwest;whiteSpace=wrap;html=1;labelBackgroundColor=none;fontColor=#393C56;" vertex="1" parent="VchHYo2AnK-7lCxhvAY8-1">
          <mxGeometry y="26" width="187" height="113" as="geometry" />
        </mxCell>
        <mxCell id="VchHYo2AnK-7lCxhvAY8-3" value="" style="line;strokeWidth=1;fillColor=none;align=left;verticalAlign=middle;spacingTop=-1;spacingLeft=3;spacingRight=3;rotatable=0;labelPosition=right;points=[];portConstraint=eastwest;strokeColor=#E07A5F;labelBackgroundColor=none;fontColor=#393C56;" vertex="1" parent="VchHYo2AnK-7lCxhvAY8-1">
          <mxGeometry y="139" width="187" height="8" as="geometry" />
        </mxCell>
        <mxCell id="VchHYo2AnK-7lCxhvAY8-4" value="&lt;div&gt;+ login()&lt;/div&gt;&lt;div&gt;+ signUp()&lt;/div&gt;&lt;div&gt;+ registration()&lt;/div&gt;&lt;div&gt;+ updateProfile()&lt;/div&gt;&lt;div&gt;+ createStudySupportOffer() &lt;br&gt;&lt;/div&gt;" style="text;strokeColor=none;fillColor=none;align=left;verticalAlign=top;spacingLeft=4;spacingRight=4;overflow=hidden;rotatable=0;points=[[0,0.5],[1,0.5]];portConstraint=eastwest;whiteSpace=wrap;html=1;labelBackgroundColor=none;fontColor=#393C56;" vertex="1" parent="VchHYo2AnK-7lCxhvAY8-1">
          <mxGeometry y="147" width="187" height="96" as="geometry" />
        </mxCell>
        <mxCell id="X8MO3I-nM-5KYqRnnHTI-1" value="Study Support Offer" style="swimlane;fontStyle=1;align=center;verticalAlign=top;childLayout=stackLayout;horizontal=1;startSize=26;horizontalStack=0;resizeParent=1;resizeParentMax=0;resizeLast=0;collapsible=1;marginBottom=0;whiteSpace=wrap;html=1;labelBackgroundColor=none;fillColor=#F2CC8F;strokeColor=#E07A5F;fontColor=#393C56;" vertex="1" parent="1">
          <mxGeometry x="82" y="-511" width="183" height="153" as="geometry" />
        </mxCell>
        <mxCell id="X8MO3I-nM-5KYqRnnHTI-2" value="&lt;div&gt;:Study Support Offer ID(P.K.)&lt;/div&gt;&lt;div&gt;:Student giving Support ID (F.K.)&lt;br&gt;&lt;/div&gt;&lt;div&gt;:Student Name&lt;/div&gt;&lt;div&gt;:Student Module Passed&lt;/div&gt;&lt;div&gt;:Place to meet&lt;br&gt;&lt;/div&gt;" style="text;strokeColor=none;fillColor=none;align=left;verticalAlign=top;spacingLeft=4;spacingRight=4;overflow=hidden;rotatable=0;points=[[0,0.5],[1,0.5]];portConstraint=eastwest;whiteSpace=wrap;html=1;labelBackgroundColor=none;fontColor=#393C56;" vertex="1" parent="X8MO3I-nM-5KYqRnnHTI-1">
          <mxGeometry y="26" width="183" height="78" as="geometry" />
        </mxCell>
        <mxCell id="X8MO3I-nM-5KYqRnnHTI-3" value="" style="line;strokeWidth=1;fillColor=none;align=left;verticalAlign=middle;spacingTop=-1;spacingLeft=3;spacingRight=3;rotatable=0;labelPosition=right;points=[];portConstraint=eastwest;strokeColor=#E07A5F;labelBackgroundColor=none;fontColor=#393C56;" vertex="1" parent="X8MO3I-nM-5KYqRnnHTI-1">
          <mxGeometry y="104" width="183" height="8" as="geometry" />
        </mxCell>
        <mxCell id="X8MO3I-nM-5KYqRnnHTI-4" value="+ requestStudySupport()" style="text;strokeColor=none;fillColor=none;align=left;verticalAlign=top;spacingLeft=4;spacingRight=4;overflow=hidden;rotatable=0;points=[[0,0.5],[1,0.5]];portConstraint=eastwest;whiteSpace=wrap;html=1;labelBackgroundColor=none;fontColor=#393C56;" vertex="1" parent="X8MO3I-nM-5KYqRnnHTI-1">
          <mxGeometry y="112" width="183" height="41" as="geometry" />
        </mxCell>
        <mxCell id="X8MO3I-nM-5KYqRnnHTI-5" value="Study Support Request" style="swimlane;fontStyle=1;align=center;verticalAlign=top;childLayout=stackLayout;horizontal=1;startSize=26;horizontalStack=0;resizeParent=1;resizeParentMax=0;resizeLast=0;collapsible=1;marginBottom=0;whiteSpace=wrap;html=1;labelBackgroundColor=none;fillColor=#F2CC8F;strokeColor=#E07A5F;fontColor=#393C56;" vertex="1" parent="1">
          <mxGeometry x="346" y="-504" width="255" height="220" as="geometry" />
        </mxCell>
        <mxCell id="X8MO3I-nM-5KYqRnnHTI-6" value="&lt;div&gt;:Study Support Request ID&lt;/div&gt;&lt;div&gt;:Study Support Offer (F.K.)&lt;/div&gt;&lt;div&gt;:Student Giving Support ID (F.K.)&lt;/div&gt;&lt;div&gt;:Student Giving Support Name and Surname&lt;br&gt;&lt;/div&gt;&lt;div&gt;:Student Requesting support ID (F.K.)&lt;/div&gt;&lt;div&gt;:Student taking Support Name and Surname&lt;br&gt;&lt;/div&gt;&lt;div&gt;:Module ID (F.K.) &lt;br&gt;&lt;/div&gt;&lt;div&gt;:Study Support Meeting Location&lt;br&gt;&lt;/div&gt;" style="text;strokeColor=none;fillColor=none;align=left;verticalAlign=top;spacingLeft=4;spacingRight=4;overflow=hidden;rotatable=0;points=[[0,0.5],[1,0.5]];portConstraint=eastwest;whiteSpace=wrap;html=1;labelBackgroundColor=none;fontColor=#393C56;" vertex="1" parent="X8MO3I-nM-5KYqRnnHTI-5">
          <mxGeometry y="26" width="255" height="141" as="geometry" />
        </mxCell>
        <mxCell id="X8MO3I-nM-5KYqRnnHTI-7" value="" style="line;strokeWidth=1;fillColor=none;align=left;verticalAlign=middle;spacingTop=-1;spacingLeft=3;spacingRight=3;rotatable=0;labelPosition=right;points=[];portConstraint=eastwest;strokeColor=#E07A5F;labelBackgroundColor=none;fontColor=#393C56;" vertex="1" parent="X8MO3I-nM-5KYqRnnHTI-5">
          <mxGeometry y="167" width="255" height="12" as="geometry" />
        </mxCell>
        <mxCell id="X8MO3I-nM-5KYqRnnHTI-8" value="+ createNotificationOfRequestedSupport()" style="text;strokeColor=none;fillColor=none;align=left;verticalAlign=top;spacingLeft=4;spacingRight=4;overflow=hidden;rotatable=0;points=[[0,0.5],[1,0.5]];portConstraint=eastwest;whiteSpace=wrap;html=1;labelBackgroundColor=none;fontColor=#393C56;" vertex="1" parent="X8MO3I-nM-5KYqRnnHTI-5">
          <mxGeometry y="179" width="255" height="41" as="geometry" />
        </mxCell>
        <mxCell id="5C8mUYScUN2zAmMvIqFV-1" value="&lt;div&gt;Notification For Requested &lt;br&gt;&lt;/div&gt;&lt;div&gt;Study Support&lt;br&gt;&lt;/div&gt;" style="swimlane;fontStyle=1;align=center;verticalAlign=top;childLayout=stackLayout;horizontal=1;startSize=43;horizontalStack=0;resizeParent=1;resizeParentMax=0;resizeLast=0;collapsible=1;marginBottom=0;whiteSpace=wrap;html=1;labelBackgroundColor=none;fillColor=#F2CC8F;strokeColor=#E07A5F;fontColor=#393C56;" vertex="1" parent="1">
          <mxGeometry x="82" y="-249" width="265" height="229" as="geometry" />
        </mxCell>
        <mxCell id="5C8mUYScUN2zAmMvIqFV-2" value="&lt;div&gt;:Study Support Request Notification (P.K.)&lt;br&gt;&lt;/div&gt;&lt;div&gt;:Study Support Request ID (F.K.)&lt;br&gt;&lt;/div&gt;&lt;div&gt;:Study Support Offer (F.K.)&lt;/div&gt;&lt;div&gt;:Student Giving Support ID (F.K.)&lt;/div&gt;&lt;div&gt;:Student Giving Support Name and Surname&lt;br&gt;&lt;/div&gt;&lt;div&gt;:Student Requesting support ID (F.K.)&lt;/div&gt;&lt;div&gt;:Student taking Support Name and Surname&lt;br&gt;&lt;/div&gt;&lt;div&gt;:Module ID (F.K.) &lt;br&gt;&lt;/div&gt;&lt;div&gt;:Study Support Meeting Location&lt;br&gt;&lt;/div&gt;" style="text;strokeColor=none;fillColor=none;align=left;verticalAlign=top;spacingLeft=4;spacingRight=4;overflow=hidden;rotatable=0;points=[[0,0.5],[1,0.5]];portConstraint=eastwest;whiteSpace=wrap;html=1;labelBackgroundColor=none;fontColor=#393C56;" vertex="1" parent="5C8mUYScUN2zAmMvIqFV-1">
          <mxGeometry y="43" width="265" height="143" as="geometry" />
        </mxCell>
        <mxCell id="5C8mUYScUN2zAmMvIqFV-3" value="" style="line;strokeWidth=1;fillColor=none;align=left;verticalAlign=middle;spacingTop=-1;spacingLeft=3;spacingRight=3;rotatable=0;labelPosition=right;points=[];portConstraint=eastwest;strokeColor=#E07A5F;labelBackgroundColor=none;fontColor=#393C56;" vertex="1" parent="5C8mUYScUN2zAmMvIqFV-1">
          <mxGeometry y="186" width="265" height="8" as="geometry" />
        </mxCell>
        <mxCell id="5C8mUYScUN2zAmMvIqFV-4" value="+ Accept/Reject_Support_Request()" style="text;strokeColor=none;fillColor=none;align=left;verticalAlign=top;spacingLeft=4;spacingRight=4;overflow=hidden;rotatable=0;points=[[0,0.5],[1,0.5]];portConstraint=eastwest;whiteSpace=wrap;html=1;labelBackgroundColor=none;fontColor=#393C56;" vertex="1" parent="5C8mUYScUN2zAmMvIqFV-1">
          <mxGeometry y="194" width="265" height="35" as="geometry" />
        </mxCell>
        <mxCell id="5C8mUYScUN2zAmMvIqFV-6" value="Study Module" style="swimlane;fontStyle=1;align=center;verticalAlign=top;childLayout=stackLayout;horizontal=1;startSize=26;horizontalStack=0;resizeParent=1;resizeParentMax=0;resizeLast=0;collapsible=1;marginBottom=0;whiteSpace=wrap;html=1;labelBackgroundColor=none;fillColor=#F2CC8F;strokeColor=#E07A5F;fontColor=#393C56;" vertex="1" parent="1">
          <mxGeometry x="-203" y="-185" width="160" height="95" as="geometry" />
        </mxCell>
        <mxCell id="5C8mUYScUN2zAmMvIqFV-7" value="&lt;div&gt;: Study Module ID&lt;br&gt;&lt;/div&gt;&lt;div&gt;: Study Module Name&lt;br&gt;&lt;/div&gt;&lt;div&gt;: Study Module Status&lt;br&gt;&lt;/div&gt;" style="text;strokeColor=none;fillColor=none;align=left;verticalAlign=top;spacingLeft=4;spacingRight=4;overflow=hidden;rotatable=0;points=[[0,0.5],[1,0.5]];portConstraint=eastwest;whiteSpace=wrap;html=1;labelBackgroundColor=none;fontColor=#393C56;" vertex="1" parent="5C8mUYScUN2zAmMvIqFV-6">
          <mxGeometry y="26" width="160" height="61" as="geometry" />
        </mxCell>
        <mxCell id="5C8mUYScUN2zAmMvIqFV-8" value="" style="line;strokeWidth=1;fillColor=none;align=left;verticalAlign=middle;spacingTop=-1;spacingLeft=3;spacingRight=3;rotatable=0;labelPosition=right;points=[];portConstraint=eastwest;strokeColor=#E07A5F;labelBackgroundColor=none;fontColor=#393C56;" vertex="1" parent="5C8mUYScUN2zAmMvIqFV-6">
          <mxGeometry y="87" width="160" height="8" as="geometry" />
        </mxCell>
        <mxCell id="5C8mUYScUN2zAmMvIqFV-15" value="" style="endArrow=none;html=1;rounded=0;fontSize=12;startSize=8;endSize=8;curved=1;entryX=0.481;entryY=1.01;entryDx=0;entryDy=0;entryPerimeter=0;labelBackgroundColor=none;strokeColor=#E07A5F;fontColor=default;" edge="1" parent="1" target="VchHYo2AnK-7lCxhvAY8-4">
          <mxGeometry width="50" height="50" relative="1" as="geometry">
            <mxPoint x="-120" y="-189" as="sourcePoint" />
            <mxPoint x="-83" y="-258" as="targetPoint" />
          </mxGeometry>
        </mxCell>
        <mxCell id="5C8mUYScUN2zAmMvIqFV-16" value="" style="endArrow=none;html=1;rounded=0;fontSize=12;startSize=8;endSize=8;curved=1;entryX=1.027;entryY=0.142;entryDx=0;entryDy=0;entryPerimeter=0;exitX=0.001;exitY=0.17;exitDx=0;exitDy=0;exitPerimeter=0;labelBackgroundColor=none;strokeColor=#E07A5F;fontColor=default;" edge="1" parent="1" source="X8MO3I-nM-5KYqRnnHTI-2" target="VchHYo2AnK-7lCxhvAY8-2">
          <mxGeometry width="50" height="50" relative="1" as="geometry">
            <mxPoint x="18" y="-403" as="sourcePoint" />
            <mxPoint x="18" y="-483" as="targetPoint" />
          </mxGeometry>
        </mxCell>
        <mxCell id="5C8mUYScUN2zAmMvIqFV-17" value="" style="endArrow=none;html=1;rounded=0;fontSize=12;startSize=8;endSize=8;curved=1;entryX=1.004;entryY=0.17;entryDx=0;entryDy=0;entryPerimeter=0;labelBackgroundColor=none;strokeColor=#E07A5F;fontColor=default;" edge="1" parent="1">
          <mxGeometry width="50" height="50" relative="1" as="geometry">
            <mxPoint x="345" y="-474" as="sourcePoint" />
            <mxPoint x="264.73199999999997" y="-473.74" as="targetPoint" />
          </mxGeometry>
        </mxCell>
        <mxCell id="5C8mUYScUN2zAmMvIqFV-24" value="" style="endArrow=none;html=1;rounded=0;strokeColor=#E07A5F;fontSize=12;fontColor=#393C56;startSize=8;endSize=8;curved=1;fillColor=#F2CC8F;entryX=0.811;entryY=1.021;entryDx=0;entryDy=0;entryPerimeter=0;" edge="1" parent="1" target="VchHYo2AnK-7lCxhvAY8-4">
          <mxGeometry width="50" height="50" relative="1" as="geometry">
            <mxPoint x="-58" y="-226" as="sourcePoint" />
            <mxPoint x="43" y="-259" as="targetPoint" />
          </mxGeometry>
        </mxCell>
        <mxCell id="5C8mUYScUN2zAmMvIqFV-25" value="" style="endArrow=none;html=1;rounded=0;strokeColor=#E07A5F;fontSize=12;fontColor=#393C56;startSize=8;endSize=8;curved=1;fillColor=#F2CC8F;" edge="1" parent="1">
          <mxGeometry width="50" height="50" relative="1" as="geometry">
            <mxPoint x="80" y="-225" as="sourcePoint" />
            <mxPoint x="-58" y="-225" as="targetPoint" />
          </mxGeometry>
        </mxCell>
        <mxCell id="5C8mUYScUN2zAmMvIqFV-27" value="" style="endArrow=none;html=1;rounded=0;strokeColor=#E07A5F;fontSize=12;fontColor=#393C56;startSize=8;endSize=8;curved=1;fillColor=#F2CC8F;exitX=0.25;exitY=0;exitDx=0;exitDy=0;entryX=0.35;entryY=0.951;entryDx=0;entryDy=0;entryPerimeter=0;" edge="1" parent="1" source="5C8mUYScUN2zAmMvIqFV-1" target="X8MO3I-nM-5KYqRnnHTI-4">
          <mxGeometry width="50" height="50" relative="1" as="geometry">
            <mxPoint x="200" y="-254" as="sourcePoint" />
            <mxPoint x="297" y="-327" as="targetPoint" />
          </mxGeometry>
        </mxCell>
        <mxCell id="5C8mUYScUN2zAmMvIqFV-28" value="" style="endArrow=none;html=1;rounded=0;strokeColor=#E07A5F;fontSize=12;fontColor=#393C56;startSize=8;endSize=8;curved=1;fillColor=#F2CC8F;entryX=0.004;entryY=0.296;entryDx=0;entryDy=0;entryPerimeter=0;" edge="1" parent="1" target="X8MO3I-nM-5KYqRnnHTI-8">
          <mxGeometry width="50" height="50" relative="1" as="geometry">
            <mxPoint x="243" y="-313" as="sourcePoint" />
            <mxPoint x="342" y="-317" as="targetPoint" />
          </mxGeometry>
        </mxCell>
        <mxCell id="5C8mUYScUN2zAmMvIqFV-29" value="" style="endArrow=none;html=1;rounded=0;strokeColor=#E07A5F;fontSize=12;fontColor=#393C56;startSize=8;endSize=8;curved=1;fillColor=#F2CC8F;" edge="1" parent="1">
          <mxGeometry width="50" height="50" relative="1" as="geometry">
            <mxPoint x="242" y="-250" as="sourcePoint" />
            <mxPoint x="242" y="-313" as="targetPoint" />
          </mxGeometry>
        </mxCell>
        <mxCell id="5C8mUYScUN2zAmMvIqFV-30" value="1" style="text;html=1;align=center;verticalAlign=middle;resizable=0;points=[];autosize=1;strokeColor=none;fillColor=none;fontSize=16;fontColor=#393C56;" vertex="1" parent="1">
          <mxGeometry x="-27" y="-496" width="27" height="31" as="geometry" />
        </mxCell>
        <mxCell id="5C8mUYScUN2zAmMvIqFV-31" value="M" style="text;html=1;align=center;verticalAlign=middle;resizable=0;points=[];autosize=1;strokeColor=none;fillColor=none;fontSize=16;fontColor=#393C56;" vertex="1" parent="1">
          <mxGeometry x="53.5" y="-497.5" width="31" height="31" as="geometry" />
        </mxCell>
        <mxCell id="5C8mUYScUN2zAmMvIqFV-32" value="M" style="text;html=1;align=center;verticalAlign=middle;whiteSpace=wrap;rounded=0;fontSize=16;fontColor=#393C56;" vertex="1" parent="1">
          <mxGeometry x="302" y="-500.5" width="60" height="30" as="geometry" />
        </mxCell>
        <mxCell id="5C8mUYScUN2zAmMvIqFV-33" value="1" style="text;html=1;align=center;verticalAlign=middle;whiteSpace=wrap;rounded=0;fontSize=16;fontColor=#393C56;" vertex="1" parent="1">
          <mxGeometry x="246" y="-500.5" width="60" height="30" as="geometry" />
        </mxCell>
        <mxCell id="5C8mUYScUN2zAmMvIqFV-34" value="1" style="text;html=1;align=center;verticalAlign=middle;whiteSpace=wrap;rounded=0;fontSize=16;fontColor=#393C56;" vertex="1" parent="1">
          <mxGeometry x="133" y="-358" width="60" height="30" as="geometry" />
        </mxCell>
        <mxCell id="5C8mUYScUN2zAmMvIqFV-35" value="M" style="text;html=1;align=center;verticalAlign=middle;whiteSpace=wrap;rounded=0;fontSize=16;fontColor=#393C56;" vertex="1" parent="1">
          <mxGeometry x="130" y="-273" width="60" height="30" as="geometry" />
        </mxCell>
        <mxCell id="5C8mUYScUN2zAmMvIqFV-36" value="1" style="text;html=1;align=center;verticalAlign=middle;whiteSpace=wrap;rounded=0;fontSize=16;fontColor=#393C56;" vertex="1" parent="1">
          <mxGeometry x="203" y="-275" width="60" height="30" as="geometry" />
        </mxCell>
        <mxCell id="5C8mUYScUN2zAmMvIqFV-37" value="1" style="text;html=1;align=center;verticalAlign=middle;whiteSpace=wrap;rounded=0;fontSize=16;fontColor=#393C56;" vertex="1" parent="1">
          <mxGeometry x="253" y="-350" width="60" height="30" as="geometry" />
        </mxCell>
        <mxCell id="5C8mUYScUN2zAmMvIqFV-38" value="1" style="text;html=1;align=center;verticalAlign=middle;whiteSpace=wrap;rounded=0;fontSize=16;fontColor=#393C56;" vertex="1" parent="1">
          <mxGeometry x="-79" y="-271" width="60" height="30" as="geometry" />
        </mxCell>
        <mxCell id="5C8mUYScUN2zAmMvIqFV-39" value="1" style="text;html=1;align=center;verticalAlign=middle;whiteSpace=wrap;rounded=0;fontSize=16;fontColor=#393C56;" vertex="1" parent="1">
          <mxGeometry x="39" y="-251" width="60" height="30" as="geometry" />
        </mxCell>
        <mxCell id="5C8mUYScUN2zAmMvIqFV-41" value="M" style="text;html=1;align=center;verticalAlign=middle;whiteSpace=wrap;rounded=0;fontSize=16;fontColor=#393C56;" vertex="1" parent="1">
          <mxGeometry x="-163" y="-273" width="60" height="30" as="geometry" />
        </mxCell>
        <mxCell id="5C8mUYScUN2zAmMvIqFV-42" value="M" style="text;html=1;align=center;verticalAlign=middle;whiteSpace=wrap;rounded=0;fontSize=16;fontColor=#393C56;" vertex="1" parent="1">
          <mxGeometry x="-163" y="-212" width="60" height="30" as="geometry" />
        </mxCell>
      </root>
    </mxGraphModel>
  </diagram>
</mxfile>
